# xmcd
#
# Track frame offsets: 
#        150
#        44250
#        83700
#        111182
#        147325
#        168775
#
# Disc length: 2423 seconds
#
# Revision: 8
# Processed by: cddbd v1.5.2PL0 Copyright (c) Steve Scherf et al.
# Submitted via: ExactAudioCopy v0.99pb5
#
DISCID=45097506
DTITLE=Weather Report - 8:30 [CD1]
DYEAR=1979
DGENRE=Jazz
TTITLE0=Black Market
TTITLE1=Scarlet Woman
TTITLE2=Teen Town
TTITLE3=A Remark You Made
TTITLE4=Slang
TTITLE5=In a Silent Way
EXTD=YEAR: 1979
EXTT0=
EXTT1=
EXTT2=
EXTT3=
EXTT4=
EXTT5=
PLAYORDER=
